HIERARCHY
ROOT mixamorig:Hips
{
	OFFSET -0.000419 2.091508 -0.014164
	CHANNELS 6 Xposition Yposition Zposition Xrotation Yrotation Zrotation
	JOINT mixamorig:Spine
	{
		OFFSET -0.001948 0.198048 -0.038897
		CHANNELS 3 Xrotation Yrotation Zrotation
		JOINT mixamorig:Spine1
		{
			OFFSET -0.002704 0.235003 -0.023603
			CHANNELS 3 Xrotation Yrotation Zrotation
			JOINT mixamorig:Spine2
			{
				OFFSET -0.001091 0.278076 -0.011954
				CHANNELS 3 Xrotation Yrotation Zrotation
				JOINT mixamorig:Neck
				{
					OFFSET 0.005730 0.310619 0.037617
					CHANNELS 3 Xrotation Yrotation Zrotation
					JOINT mixamorig:Head
					{
						OFFSET 0.010419 0.222310 0.065134
						CHANNELS 3 Xrotation Yrotation Zrotation
						End Site
						{
							OFFSET 0.010419 0.222310 0.065135
						}
					}
				}
				JOINT mixamorig:LeftShoulder
				{
					OFFSET 0.129541 0.188948 0.026782
					CHANNELS 3 Xrotation Yrotation Zrotation
					JOINT mixamorig:LeftArm
					{
						OFFSET 0.262609 0.007741 -0.040542
						CHANNELS 3 Xrotation Yrotation Zrotation
						JOINT mixamorig:LeftForeArm
						{
							OFFSET 0.551277 -0.000001 -0.000000
							CHANNELS 3 Xrotation Yrotation Zrotation
							JOINT mixamorig:LeftHand
							{
								OFFSET 0.527734 -0.000000 0.000000
								CHANNELS 3 Xrotation Yrotation Zrotation
								End Site
								{
									OFFSET 0.527734 -0.000001 0.000000
								}
							}
						}
					}
				}
				JOINT mixamorig:RightShoulder
				{
					OFFSET -0.126373 0.192153 0.021809
					CHANNELS 3 Xrotation Yrotation Zrotation
					JOINT mixamorig:RightArm
					{
						OFFSET -0.263354 0.004609 -0.054230
						CHANNELS 3 Xrotation Yrotation Zrotation
						JOINT mixamorig:RightForeArm
						{
							OFFSET -0.558427 -0.000000 -0.000000
							CHANNELS 3 Xrotation Yrotation Zrotation
							JOINT mixamorig:RightHand
							{
								OFFSET -0.503137 -0.000000 -0.000000
								CHANNELS 3 Xrotation Yrotation Zrotation
								End Site
								{
									OFFSET -0.503137 0.000000 0.000000
								}
							}
						}
					}
				}
			}
		}
	}
	JOINT mixamorig:LeftUpLeg
	{
		OFFSET 0.185244 -0.138385 0.026620
		CHANNELS 3 Xrotation Yrotation Zrotation
		JOINT mixamorig:LeftLeg
		{
			OFFSET -0.004065 -0.852313 -0.015108
			CHANNELS 3 Xrotation Yrotation Zrotation
			JOINT mixamorig:LeftFoot
			{
				OFFSET 0.004508 -0.854152 -0.051445
				CHANNELS 3 Xrotation Yrotation Zrotation
				JOINT mixamorig:LeftToeBase
				{
					OFFSET 0.026925 -0.213949 0.242907
					CHANNELS 3 Xrotation Yrotation Zrotation
					End Site
					{
						OFFSET -0.005614 0.004268 0.324736
					}
				}
			}
		}
	}
	JOINT mixamorig:RightUpLeg
	{
		OFFSET -0.184403 -0.144117 0.001603
		CHANNELS 3 Xrotation Yrotation Zrotation
		JOINT mixamorig:RightLeg
		{
			OFFSET 0.005493 -0.848120 0.010027
			CHANNELS 3 Xrotation Yrotation Zrotation
			JOINT mixamorig:RightFoot
			{
				OFFSET -0.005940 -0.852616 -0.051576
				CHANNELS 3 Xrotation Yrotation Zrotation
				JOINT mixamorig:RightToeBase
				{
					OFFSET -0.031537 -0.214911 0.248182
					CHANNELS 3 Xrotation Yrotation Zrotation
					End Site
					{
						OFFSET -0.045720 0.003764 0.326606
					}
				}
			}
		}
	}
}
MOTION
Frames: 16
Frame Time: 0.033333
0.052307 2.067410 0.047188 -4.756686 -27.118018 -5.153478 1.821049 -2.898756 5.160768 -1.874118 -8.620050 5.596746 -2.004663 -8.602436 5.557075 10.339096 3.474604 -2.921067 8.579981 14.504315 8.415896 1.201762 -41.134517 -5.321528 -59.305768 -74.520608 -90.008998 -0.000091 -62.978394 -0.000054 -1.831762 -16.144139 -15.537835 3.345844 14.667618 2.812762 2.074359 33.275053 62.287726 0.000053 94.990009 -0.000101 -83.093930 -1.253567 33.861093 -7.518601 12.598743 9.460438 21.205036 10.001478 3.922807 -5.520367 17.437300 -10.307728 -4.418174 0.000005 0.000004 -2.280998 -11.951923 -1.824214 11.595836 -5.271748 0.217509 -4.698522 17.476492 3.640841 -7.437688 0.000008 -0.000020 
0.051694 2.067704 0.045819 -4.769250 -26.948998 -5.320291 1.838162 -2.840947 5.123008 -1.838088 -8.498769 5.530993 -1.965041 -8.482145 5.490870 10.064719 3.439745 -2.723227 8.369424 14.538946 8.171200 1.330726 -39.251622 -4.674324 -62.921451 -74.764746 -93.217288 -0.000056 -62.549957 -0.000049 -2.524053 -16.413249 -14.601327 3.310844 15.219851 3.256536 1.413843 34.100894 62.164120 -0.000071 94.913873 0.000049 -83.535884 -0.155405 33.425149 -7.562239 12.678009 9.696870 21.062662 10.001204 3.938101 -5.432954 17.156947 -10.281509 -4.420935 -0.000003 0.000001 -2.084047 -11.856818 -1.537936 11.324575 -5.247934 0.187831 -4.501398 17.166651 3.616640 -7.426839 0.000006 -0.000017 
0.051120 2.067940 0.044152 -4.772889 -26.648664 -5.444292 1.848385 -2.761162 5.085913 -1.812547 -8.335754 5.469902 -1.935899 -8.320189 5.429032 9.763592 3.402644 -2.637050 8.013537 14.498917 7.852495 1.403930 -37.117003 -4.023010 -67.398517 -74.918364 -97.249244 -0.000058 -61.639664 -0.000033 -3.071138 -16.553590 -13.960704 3.315592 15.965861 3.536977 0.489329 34.874423 62.328919 -0.000058 94.861212 -0.000021 -84.247084 0.966455 33.034435 -7.630420 12.752481 9.905274 20.907662 10.000607 3.950511 -5.347267 16.754343 -10.222920 -4.428401 0.000010 -0.000003 -1.899411 -11.780673 -1.283937 11.085456 -5.226768 0.158488 -4.338766 16.748476 3.581570 -7.415935 0.000004 -0.000014 
0.050614 2.068169 0.042362 -4.767310 -26.188255 -5.505713 1.843091 -2.650833 5.055703 -1.812749 -8.116306 5.416604 -1.934085 -8.101637 5.374544 9.497625 3.344586 -2.731319 7.543167 14.230481 7.475431 1.389861 -35.073151 -3.577174 -71.625899 -74.921253 -100.973835 -0.000046 -60.439183 -0.000023 -3.636510 -16.268631 -14.002341 3.401342 16.718408 3.382753 -0.809326 35.574101 63.095928 -0.000015 94.787815 -0.000027 -85.088871 2.325874 32.533550 -7.722034 12.820017 10.078368 20.751165 10.000197 3.937586 -5.257732 16.193783 -10.142834 -4.436148 0.000010 0.000000 -1.719400 -11.751086 -1.092363 10.874897 -5.205487 0.139728 -4.217525 16.220127 3.535189 -7.405160 0.000008 -0.000011 
0.050119 2.068451 0.040534 -4.753536 -25.540731 -5.511583 1.822032 -2.511964 5.025226 -1.837039 -7.843274 5.356702 -1.958448 -7.829349 5.312643 9.272339 3.247676 -2.919663 7.116632 13.707353 7.036243 1.287987 -33.253336 -3.435799 -75.245387 -74.883025 -103.996945 -0.000068 -59.131311 -0.000029 -4.340408 -15.329216 -14.714084 3.555751 17.268313 2.828172 -2.465113 36.286565 64.411033 -0.000014 94.613365 -0.000006 -85.866399 3.953335 31.830259 -7.838645 12.889483 10.236270 20.587064 10.000356 3.887840 -5.146274 15.429131 -10.052186 -4.439165 0.000000 -0.000001 -1.514610 -11.750449 -0.929753 10.663010 -5.189230 0.103228 -4.150693 15.536174 3.471572 -7.394434 0.000002 -0.000014 
0.049573 2.068909 0.038669 -4.744571 -24.723302 -5.467210 1.796681 -2.364816 4.975535 -1.865632 -7.551434 5.265662 -1.984896 -7.538529 5.218979 9.049211 3.117341 -3.031138 6.905053 13.086763 6.531650 1.166113 -31.567744 -3.429463 -78.534779 -74.811328 -106.629642 -0.000051 -57.861278 -0.000017 -5.057979 -13.997616 -15.591864 3.714869 17.618268 2.195312 -4.295252 37.052451 65.833140 0.000031 94.319305 -0.000054 -86.518341 5.689717 30.947857 -7.965660 12.968547 10.369622 20.406305 10.000757 3.814163 -5.001130 14.479559 -9.944550 -4.435316 0.000001 -0.000001 -1.266997 -11.753982 -0.781692 10.424881 -5.171454 0.025181 -4.106044 14.681176 3.422776 -7.383323 0.000017 -0.000016 
0.048953 2.069486 0.036750 -4.752402 -23.805388 -5.372324 1.782909 -2.229315 4.893401 -1.874889 -7.276282 5.135031 -1.989104 -7.264757 5.086173 8.782164 2.974989 -2.968023 6.956435 12.546491 5.982882 1.096621 -29.883628 -3.311581 -81.644543 -74.566480 -109.102238 -0.000052 -56.733498 -0.000024 -5.673921 -13.023027 -16.109983 3.848855 18.014588 1.713939 -6.073918 37.765021 66.943353 -0.000113 93.998286 0.000079 -87.224487 7.395698 29.988741 -8.083226 13.055675 10.454025 20.214700 10.000923 3.731457 -4.823933 13.432574 -9.812158 -4.421581 0.000005 -0.000002 -1.014146 -11.745085 -0.667067 10.220511 -5.154879 -0.090094 -4.095184 13.712663 3.397067 -7.371750 0.000011 -0.000014 
0.048270 2.070104 0.034886 -4.780702 -22.867333 -5.243715 1.790308 -2.101165 4.785763 -1.852130 -7.009712 4.981455 -1.957457 -6.999755 4.932008 8.447873 2.830874 -2.772339 7.157349 12.097182 5.444287 1.080791 -28.153102 -3.028845 -84.477460 -74.058061 -111.354575 -0.000080 -55.825281 -0.000039 -6.329495 -12.878054 -16.187647 4.003835 18.729374 1.278582 -7.694261 38.196388 67.714291 -0.000016 93.759277 0.000045 -88.281465 9.025949 29.008708 -8.177128 13.151822 10.496944 20.023133 10.000994 3.639854 -4.628669 12.368789 -9.660285 -4.405271 0.000003 0.000004 -0.774548 -11.724780 -0.589401 10.071102 -5.139442 -0.223854 -4.116225 12.714607 3.393103 -7.360980 0.000006 -0.000017 
0.047525 2.070642 0.033199 -4.833598 -21.958630 -5.101184 1.817910 -1.956993 4.664728 -1.798779 -6.708693 4.820995 -1.892959 -6.700151 4.772755 8.062521 2.673819 -2.538152 7.314669 11.596860 4.987693 1.070430 -26.393518 -2.704995 -87.113223 -73.360330 -113.436547 -0.000055 -55.165044 -0.000038 -7.275793 -13.161293 -16.049351 4.236796 19.820579 0.674506 -9.189128 38.152122 68.394222 0.000044 93.595134 0.000020 -89.802385 10.563738 27.920620 -8.237817 13.256517 10.514776 19.845868 10.001046 3.538947 -4.440337 11.332097 -9.502585 -4.398784 0.000004 0.000002 -0.554351 -11.706755 -0.548706 9.992172 -5.125660 -0.354571 -4.169991 11.754403 3.393960 -7.352142 -0.000000 -0.000015 
0.046655 2.071002 0.031657 -4.912963 -21.074608 -4.947090 1.856305 -1.785128 4.531264 -1.729482 -6.352006 4.646556 -1.812088 -6.344587 4.600701 7.682986 2.488955 -2.304427 7.283995 10.933003 4.661069 1.042030 -24.676628 -2.449145 -89.705205 -72.636002 -115.464471 -0.000049 -54.688010 -0.000025 -8.593847 -13.110190 -15.738446 4.528667 21.053855 -0.055869 -10.584581 37.669842 69.080308 0.000111 93.410897 -0.000137 -91.419931 12.073270 26.631474 -8.264355 13.364692 10.504315 19.689432 10.000981 3.432774 -4.278886 10.322241 -9.338708 -4.404766 -0.000004 -0.000000 -0.357174 -11.713011 -0.551855 10.002044 -5.112204 -0.463386 -4.272055 10.847840 3.384000 -7.342248 0.000003 -0.000018 
0.045465 2.071228 0.030107 -5.009699 -20.161223 -4.781538 1.893874 -1.602099 4.382688 -1.665425 -5.972570 4.442715 -1.737374 -5.965596 4.399765 7.375381 2.279270 -2.055424 7.044613 10.140271 4.447963 1.013647 -23.127620 -2.283716 -92.082882 -72.022234 -117.278610 -0.000056 -54.262462 -0.000016 -10.073814 -12.537073 -15.089659 4.765532 22.052297 -0.586314 -11.780295 37.049869 69.512850 0.000103 93.218620 -0.000123 -92.294584 13.734027 25.308107 -8.270955 13.476201 10.483784 19.530238 10.000792 3.318632 -4.129507 9.279974 -9.160724 -4.419488 0.000001 0.000004 -0.155855 -11.751503 -0.576741 10.056123 -5.094949 -0.543809 -4.416655 9.937388 3.332002 -7.325618 0.000005 -0.000018 
0.043718 2.071403 0.028398 -5.114095 -19.164911 -4.621837 1.925220 -1.435363 4.227017 -1.617607 -5.625305 4.214110 -1.680839 -5.617940 4.174247 7.161642 2.065255 -1.787899 6.669352 9.337367 4.281252 0.993890 -21.778734 -2.205155 -94.029459 -71.576510 -118.715778 -0.000036 -53.776757 -0.000014 -11.363136 -11.882018 -14.213500 4.841368 22.595123 -0.643755 -12.678324 36.688863 69.403868 0.000074 93.133195 -0.000079 -91.906226 15.536073 24.392132 -8.268071 13.602419 10.500785 19.318027 10.000555 3.202004 -3.951732 8.129071 -8.981266 -4.439038 0.000006 0.000000 0.090807 -11.798064 -0.565438 10.079673 -5.075956 -0.613569 -4.557437 8.944274 3.251649 -7.307860 0.000005 -0.000014 
0.041338 2.071526 0.026462 -5.220108 -18.096161 -4.487285 1.953334 -1.295685 4.080619 -1.579030 -5.333566 3.985849 -1.636072 -5.325158 3.949058 7.004284 1.866026 -1.534382 6.241788 8.598781 4.105534 0.949962 -20.441387 -2.228183 -95.828947 -71.286083 -120.108316 -0.000055 -53.175116 -0.000029 -12.246644 -11.507081 -13.515113 4.778247 22.788108 -0.300222 -13.465011 36.855851 68.926765 -0.000301 92.804772 0.000191 -91.157467 16.947339 24.463946 -8.268872 13.744099 10.572755 19.055015 10.000247 3.086985 -3.746546 6.874830 -8.805662 -4.463868 0.000003 -0.000003 0.375709 -11.816577 -0.480911 10.059583 -5.068437 -0.700751 -4.625635 7.873705 3.244599 -7.314193 -0.000001 -0.000014 
0.038485 2.071625 0.024367 -5.315024 -17.030932 -4.381330 1.981551 -1.171743 3.953812 -1.541104 -5.076464 3.778907 -1.594280 -5.066715 3.745156 6.854188 1.685212 -1.324574 5.823112 7.915173 3.913023 0.852196 -18.907430 -2.362232 -98.000271 -71.133934 -121.976797 -0.000061 -52.430766 -0.000029 -12.887599 -11.339658 -13.121518 4.689968 22.914658 0.118137 -14.570223 37.523260 68.639187 -0.000181 91.147741 -0.000003 -91.712147 17.197585 26.124241 -8.275365 13.885042 10.642895 18.737420 9.998935 3.060327 -3.510803 5.630668 -8.677727 -4.489089 0.000017 0.000002 0.663509 -11.796935 -0.334712 9.999738 -5.078798 -0.808480 -4.576479 6.821939 3.375066 -7.359123 0.000006 -0.000017 
0.035376 2.071788 0.022259 -5.386411 -16.033705 -4.300078 2.007725 -1.047567 3.845810 -1.509364 -4.822148 3.595802 -1.560117 -4.810861 3.565391 6.694388 1.515681 -1.155549 5.471535 7.250584 3.721159 0.731977 -17.267529 -2.582725 -100.489950 -71.148701 -124.237453 -0.000033 -51.543336 -0.000007 -13.737954 -11.095769 -12.736469 4.657462 23.151606 0.353658 -16.155192 38.457134 68.914888 -0.000264 87.636559 0.000354 -93.466105 16.178193 29.316504 -8.286560 14.004517 10.683808 18.376021 9.996497 3.142309 -3.256294 4.492409 -8.606630 -4.507889 -0.000004 0.000002 0.970428 -11.758743 -0.131162 9.852538 -5.101455 -0.913590 -4.515066 5.850274 3.443136 -7.409077 -0.000005 -0.000017 
0.032106 2.072005 0.020196 -5.437690 -15.101721 -4.243803 2.030045 -0.917620 3.750277 -1.492360 -4.558348 3.428417 -1.541322 -4.545288 3.402182 6.524519 1.352556 -1.006063 5.230462 6.599511 3.541944 0.647486 -15.845409 -2.850452 -102.534253 -71.367636 -126.150835 -0.000025 -50.563057 -0.000003 -15.066648 -10.582044 -12.124716 4.680206 23.477162 0.396629 -17.687941 39.310508 69.409673 -0.000071 83.232897 0.000044 -94.105561 14.948603 32.813451 -8.306609 14.099829 10.737723 18.005746 9.993911 3.242697 -3.011541 3.446131 -8.546603 -4.524134 0.000008 0.000004 1.307932 -11.713423 0.124179 9.617463 -5.114954 -1.000955 -4.513556 4.908915 3.338914 -7.422612 0.000009 -0.000017 
